<?xml version="1.0" encoding="UTF-8"?> <svg xmlns="http://www.w3.org/2000/svg" clip-rule="evenodd" fill-rule="evenodd" stroke-linejoin="round" stroke-miterlimit="2" viewBox="0 0 1123 590"><g transform="matrix(1.40375 0 0 1.22917 -1193.187 0)"><path d="m850 0h800v480h-800z" fill="#fff"></path><path d="m1190 21.989c0-7.169-5.13-12.989-11.45-12.989h-758.096c-6.322 0-11.454 5.82-11.454 12.989v427.022c0 7.169 5.132 12.989 11.454 12.989h758.096c6.32 0 11.45-5.82 11.45-12.989z" fill="#efefef" transform="matrix(.995139 0 0 1.00213 454.386 3.99776)"></path><circle cx="49.161" cy="98.101" fill="#2496d3" r="24.25" transform="matrix(.80494841204 0 0 .91927920883 1176.15235930416 318.07993783092)"></circle><path d="m4036.6 5339.22c-.03-.99-.02-1.99.03-3 1.69-36.14 26.41-70.05 61.32-82.37 9.9-3.49 20.45-5.23 30.88-5.21 33.14.19 65.66 19.45 81.36 49.62 14.78 28.4 13.37 64.54-4.13 91.89-8.04 12.57-19.29 23.2-32.14 30.51-.37.21-.74.4-1.13.58-1.22.87-2.44 1.72-3.57 2.61-13.5 10.69-18.44 30.94-10.97 46.68 8.27 17.41 30.67 27.11 49.78 19.02 17.46-7.38 27.63-28.68 21.67-47.36 0 0-1.26-5.03-.23-8.94 2.48-9.43 14.89-14.93 23.71-9.64 4.64 2.79 6.98 8.03 8.37 13.68 5.09 20.8.07 43.85-13.3 60.64-19.62 24.66-56.5 33.78-85.75 19.68-21.18-10.21-36.6-31.62-39.43-55.02-3.23-26.77 10.29-54.69 33.53-68.85.06-.05.13-.09.2-.13 7.75-5 15.28-10.71 20.65-18.26 11.63-16.34 14.29-38.67 6.64-57.37-11.53-28.22-46.48-45.23-77.21-33.32-22.28 8.64-38.26 31.5-38.36 55.78v.09.24 147.23c0 .1-.01.2-.01.29.02.14.04.27.05.41.57 4.11 8.95 5.61 8.96-.66v-.01-.03-147.23c.04-1.24.1-2.04.19-2.65.02-3.94.75-8.09 1.93-12.04 6.15-20.66 26.01-36.22 48.55-36.44h.67c19.65.19 38.45 12.41 46.4 30.57 6.59 15.06 5.34 33.28-3.43 47.36-4.8 7.71-11.57 14.29-19.76 18.3-9.86 4.83-23.99-3.46-22.99-15.67.46-5.6 4.33-10.35 9.21-13.27 7.5-4.56 11.23-14.53 8-23.04-3.7-9.76-16.32-15.04-25.99-10.38-6.39 3.07-10.76 9.85-10.78 17.16v.03.07 147.23c0 .09 0 .17-.01.26.01.25.01.5 0 .75-.41 16.06-12.74 31.14-28.47 34.68-16.03 3.6-33.86-4.46-41.19-20.38-1.94-4.22-3.17-9-3.23-13.54-.08-.73-.07-.97-.1-1.77v-147.23c.02-.72.02-.99.08-1.55zm184.3 50.44c9.93 0 18 8.07 18 18 0 9.94-8.07 18-18 18-9.94 0-18-8.06-18-18 0-9.93 8.06-18 18-18z" fill="#fff" fill-rule="nonzero" transform="matrix(.10932659997 0 0 .12485479668 763.3997632408 -265.4295817644)"></path><path d="m.288-.394c-.012 0-.024.003-.036.009s-.023.014-.032.024c-.009.011-.017.023-.023.038s-.009.031-.009.049v.274h-.114v-.252c0-.04-.003-.073-.008-.101-.005-.027-.011-.048-.017-.065-.007-.019-.015-.035-.024-.047l.09-.036c.006.007.012.016.019.027.005.009.011.02.016.033s.01.028.013.045c.013-.039.033-.067.058-.084s.054-.025.086-.025c.015 0 .03.002.043.005.013.004.02.006.019.006l-.032.111c.001 0-.003-.002-.011-.006-.009-.003-.021-.005-.038-.005z" fill="#888" fill-rule="nonzero" transform="matrix(36.34755353939 0 0 41.51017600757 1237.23408176715 419.99972430552)"></path><path d="m.17.004c-.035 0-.062-.011-.081-.032s-.028-.048-.028-.081v-.389h.114v.379c0 .015.002.026.007.031s.012.008.021.008h.009c.003 0 .005 0 .008-.001.003 0 .006 0 .009-.001l.012.072c-.005.003-.011.005-.018.007-.006.002-.013.004-.022.005s-.02.002-.031.002zm-.05-.724c.021 0 .038.006.049.019s.017.029.017.049-.006.037-.017.05c-.012.013-.029.02-.052.02-.021 0-.038-.006-.049-.02-.012-.013-.018-.028-.018-.047 0-.021.006-.038.018-.051.011-.013.029-.02.052-.02z" fill="#888" fill-rule="nonzero" transform="matrix(36.34755353939 0 0 41.51017600757 1249.91873940614 419.99972430552)"></path><path d="m.469-.498.002.008c.001.006.002.014.003.023.001.01.002.021.004.033.001.013.001.025.001.038 0 .074-.005.136-.016.187s-.028.093-.05.124c-.023.032-.051.055-.085.069-.035.014-.075.021-.122.021-.053 0-.09-.015-.112-.046-.023-.03-.034-.072-.034-.125v-.332h.114v.329c0 .028.005.051.015.068s.027.026.051.026.044-.009.06-.027.029-.041.038-.071c.009-.029.016-.062.02-.099s.006-.074.006-.112c0-.014 0-.028-.001-.042-.001-.013-.003-.025-.004-.036-.002-.011-.003-.019-.004-.026l-.002-.01z" fill="#888" fill-rule="nonzero" transform="matrix(36.34755353939 0 0 41.51017600757 1257.40641449975 419.99972430552)"></path><path d="m.035-.237c0-.045.006-.084.019-.118.012-.034.029-.063.051-.086.021-.023.047-.04.076-.052.029-.011.061-.017.095-.017.03 0 .055.004.077.011.021.007.038.017.051.03s.023.028.03.045c.006.017.009.036.009.056 0 .024-.007.047-.02.068-.013.022-.032.041-.057.057-.025.017-.056.03-.091.039-.035.01-.075.015-.119.016.002.015.005.03.01.043.004.014.01.026.019.036.008.011.019.019.032.025s.03.009.05.009c.015 0 .03-.002.047-.005s.032-.007.046-.012c.017-.005.033-.011.049-.018l.03.071c-.017.009-.036.016-.056.023-.017.006-.037.011-.06.016s-.047.007-.072.007c-.039 0-.072-.006-.099-.018-.027-.011-.05-.028-.067-.049s-.03-.047-.038-.077-.012-.063-.012-.1zm.232-.195c-.022 0-.04.005-.054.015-.015.011-.026.024-.035.04-.009.017-.015.035-.018.055-.004.021-.006.041-.007.062.032-.001.059-.006.082-.013.022-.007.04-.015.054-.026.014-.01.024-.021.031-.033.006-.012.009-.024.009-.036 0-.019-.006-.035-.017-.047-.011-.011-.026-.017-.045-.017z" fill="#888" fill-rule="nonzero" transform="matrix(36.34755353939 0 0 41.51017600757 1274.63560514298 419.99972430552)"></path><path d="m.288-.394c-.012 0-.024.003-.036.009s-.023.014-.032.024c-.009.011-.017.023-.023.038s-.009.031-.009.049v.274h-.114v-.252c0-.04-.003-.073-.008-.101-.005-.027-.011-.048-.017-.065-.007-.019-.015-.035-.024-.047l.09-.036c.006.007.012.016.019.027.005.009.011.02.016.033s.01.028.013.045c.013-.039.033-.067.058-.084s.054-.025.086-.025c.015 0 .03.002.043.005.013.004.02.006.019.006l-.032.111c.001 0-.003-.002-.011-.006-.009-.003-.021-.005-.038-.005z" fill="#888" fill-rule="nonzero" transform="matrix(36.34755353939 0 0 41.51017600757 1290.37396114789 419.99972430552)"></path><path d="m566 256h392v35h-392z" fill="#2496d3" transform="matrix(1.587724672 0 0 1.360841664 40.16008544 -82.798525984)"></path><g fill-rule="nonzero"><path d="m.45-.737c-.029-.018-.084-.036-.156-.036-.139 0-.233.085-.233.201 0 .105.078.172.193.215.099.04.14.086.14.161 0 .082-.06.137-.162.137-.062 0-.123-.02-.164-.047l-.023.069c.038.027.113.048.182.048.164 0 .252-.093.252-.214 0-.109-.063-.172-.186-.224-.102-.043-.148-.081-.148-.156 0-.055.04-.12.146-.12.064 0 .112.021.134.035z" fill="#fff" transform="matrix(25.645658752 0 0 29.288074592 1184.4170544 300.549931872)"></path><path d="m.439-.341c0-.108-.04-.217-.194-.217-.061 0-.122.017-.166.046l.02.057c.037-.026.086-.039.133-.039.124 0 .124.104.124.15-.202-.001-.316.07-.316.201 0 .079.055.155.159.155.077 0 .133-.039.161-.082h.003l.008.07h.076c-.007-.038-.008-.085-.008-.13zm-.082.161c0 .066-.057.128-.138.128-.05 0-.094-.031-.094-.101 0-.115.129-.13.232-.13z" fill="#fff" transform="matrix(25.645658752 0 0 29.288074592 1198.446008 300.549931872)"></path><path d="m.016-.545v.065h.075v.48h.083v-.48h.132v-.065h-.132v-.031c0-.088.021-.168.107-.168.029 0 .048.007.063.013l.014-.065c-.018-.008-.046-.016-.081-.016-.043 0-.09.014-.126.049-.06.061-.06.15-.06.218z" fill="#fff" transform="matrix(25.645658752 0 0 29.288074592 1212.21676 300.549931872)"></path><path d="m.439-.341c0-.108-.04-.217-.194-.217-.061 0-.122.017-.166.046l.02.057c.037-.026.086-.039.133-.039.124 0 .124.104.124.15-.202-.001-.316.07-.316.201 0 .079.055.155.159.155.077 0 .133-.039.161-.082h.003l.008.07h.076c-.007-.038-.008-.085-.008-.13zm-.082.161c0 .066-.057.128-.138.128-.05 0-.094-.031-.094-.101 0-.115.129-.13.232-.13z" fill="#fff" transform="matrix(25.645658752 0 0 29.288074592 1220.68039328 300.549931872)"></path><path d="m.331-.554c-.009-.001-.016-.003-.025-.003-.067 0-.124.049-.148.117h-.003l-.004-.105h-.073c.003.052.004.105.004.163v.382h.083v-.296c0-.092.046-.181.136-.181.012 0 .021.001.03.002z" fill="#fff" transform="matrix(25.645658752 0 0 29.288074592 1234.45222112 300.549931872)"></path><path d="m.178-.698c0-.031-.021-.056-.054-.056-.032 0-.055.025-.055.056 0 .032.022.057.054.057s.055-.022.055-.057zm-.013.153h-.083v.545h.083z" fill="#fff" transform="matrix(25.645658752 0 0 29.288074592 1243.83784928 300.549931872)"></path><path d="m.378-.411c.078-.028.129-.093.129-.168 0-.057-.021-.101-.057-.132-.045-.038-.107-.056-.201-.056-.062 0-.122.007-.164.016v.749c.031.003.078.008.141.008.115 0 .197-.022.248-.072.035-.034.061-.082.061-.15 0-.115-.085-.175-.157-.192zm-.21-.025v-.259c.015-.004.041-.007.085-.007.104 0 .17.039.17.129v.001c0 .078-.065.136-.166.136zm0 .064h.08c.101 0 .2.042.2.156 0 .115-.094.156-.199.156-.035 0-.062-.001-.081-.005z" fill="#fff" transform="matrix(25.645658752 0 0 29.288074592 1257.19978208 300.549931872)"></path><path d="m.509-.545h-.083v.339c0 .096-.077.148-.142.148-.091 0-.122-.074-.122-.18v-.307h-.083v.322c0 .188.097.235.179.235.093 0 .149-.055.174-.098h.003l.004.086h.075c-.002-.042-.005-.089-.005-.145z" fill="#fff" transform="matrix(25.645658752 0 0 29.288074592 1272.5875216 300.549931872)"></path><path d="m.45-.546-.004.082h-.002c-.023-.044-.072-.094-.165-.094-.118 0-.236.1-.236.289 0 .153.093.268.223.268.083 0 .141-.042.169-.093h.002v.065c0 .144-.073.197-.173.197-.065 0-.118-.02-.153-.041l-.022.065c.041.028.109.043.171.043.258 0 .26-.218.26-.313v-.318c0-.067.002-.111.005-.15zm-.014.319c0 .113-.084.16-.146.16-.106 0-.162-.091-.162-.207 0-.132.067-.217.163-.217.076 0 .145.06.145.155z" fill="#fff" transform="matrix(25.645658752 0 0 29.288074592 1288.2571312 300.549931872)"></path><path d="m.361-.525c-.029-.018-.073-.033-.125-.033-.11 0-.178.07-.178.155 0 .066.047.117.139.154.072.029.101.057.101.108 0 .049-.036.088-.109.088-.047 0-.094-.02-.123-.037l-.023.064c.037.022.089.037.143.037.119 0 .193-.064.193-.161 0-.082-.051-.128-.139-.164-.07-.03-.101-.052-.101-.099 0-.044.032-.081.092-.081.049 0 .086.019.106.032z" fill="#fff" transform="matrix(25.645658752 0 0 29.288074592 1304.20861088 300.549931872)"></path><path d="m.431-.558h.06v-.171c-.033-.013-.097-.031-.183-.031-.137 0-.223.082-.223.205 0 .129.095.17.188.206.121.047.177.079.177.164 0 .076-.05.13-.166.13-.045 0-.096-.009-.143-.026l-.012-.138h-.06v.185c.057.026.125.044.217.044.138 0 .248-.073.248-.206 0-.127-.08-.169-.221-.225-.103-.041-.147-.071-.147-.15 0-.061.034-.125.138-.125.045 0 .084.008.117.021z" fill="#353535" transform="matrix(45.592192 0 0 52.067776 940.041788124 151.28946364)"></path><path d="m.455-.346c0-.111-.069-.163-.182-.163-.05 0-.11.016-.168.051v.119h.061l.009-.093c.029-.012.056-.016.081-.016.092 0 .121.045.121.117v.043c-.228.012-.317.056-.317.169 0 .082.055.129.157.129.078 0 .131-.028.169-.071.009.041.042.061.097.061.025 0 .05-.005.062-.009v-.047c-.008.001-.016.002-.024.002-.042 0-.066-.008-.066-.071zm-.078.238c-.038.043-.079.061-.137.061-.056 0-.098-.02-.098-.081 0-.059.045-.099.235-.103z" fill="#353535" transform="matrix(45.592192 0 0 52.067776 967.442695516 151.28946364)"></path><path d="m.12-.5-.09.01v.045h.09v.39l-.08.01v.045h.273v-.045l-.115-.01v-.39h.14v-.055h-.14v-.064c0-.11.033-.154.118-.154.012 0 .027.001.042.003l.008.089h.059v-.144c-.027-.006-.064-.01-.099-.01-.13 0-.206.082-.206.224z" fill="#353535" transform="matrix(45.592192 0 0 52.067776 993.567021532 151.28946364)"></path><path d="m.455-.346c0-.111-.069-.163-.182-.163-.05 0-.11.016-.168.051v.119h.061l.009-.093c.029-.012.056-.016.081-.016.092 0 .121.045.121.117v.043c-.228.012-.317.056-.317.169 0 .082.055.129.157.129.078 0 .131-.028.169-.071.009.041.042.061.097.061.025 0 .05-.005.062-.009v-.047c-.008.001-.016.002-.024.002-.042 0-.066-.008-.066-.071zm-.078.238c-.038.043-.079.061-.137.061-.056 0-.098-.02-.098-.081 0-.059.045-.099.235-.103z" fill="#353535" transform="matrix(45.592192 0 0 52.067776 1009.296327772 151.28946364)"></path><path d="m.189-.377v-.123h-.149v.045l.085.01v.39l-.085.01v.045h.278v-.045l-.115-.01v-.204c0-.118.049-.183.137-.186l.008.091h.058v-.15c-.018-.005-.029-.006-.047-.006-.08 0-.14.049-.168.133z" fill="#353535" transform="matrix(45.592192 0 0 52.067776 1035.420653788 151.28946364)"></path><path d="m.165-.636c.03 0 .054-.015.054-.053 0-.043-.024-.052-.054-.052-.026 0-.051.009-.051.052 0 .038.025.053.051.053zm.123.591-.085-.01v-.445h-.163v.045l.085.01v.39l-.085.01v.045h.248z" fill="#353535" transform="matrix(45.592192 0 0 52.067776 1055.07088854 151.28946364)"></path><path d="m.481-.052-.137-.01v-.688h-.054l-.182.073v.059l.156-.055v.611l-.135.01v.052h.352z" fill="#353535" transform="matrix(45.592192 0 0 52.067776 1082.790941276 151.28946364)"></path><path d="m.481-.052-.137-.01v-.688h-.054l-.182.073v.059l.156-.055v.611l-.135.01v.052h.352z" fill="#353535" transform="matrix(45.592192 0 0 52.067776 1110.146256476 151.28946364)"></path><path d="m.695-.474c.058.046.098.091.137.148l.045-.039c-.043-.06-.081-.098-.138-.143zm.106-.068c.058.046.089.08.129.136l.043-.038c-.044-.06-.074-.088-.13-.134zm.058-.104-.008-.063-.007-.004c-.24.036-.46.067-.734.097l.012.069c.151-.021.265-.036.388-.054l.081-.016c-.025.013-.046.026-.067.04-.083.069-.14.171-.14.293 0 .242.217.299.417.299h.016l.002-.078c-.012.001-.025.001-.037.001-.155 0-.331-.039-.331-.227 0-.115.055-.21.147-.274.069-.049.142-.068.257-.078z" fill="#353535" transform="matrix(45.592192 0 0 52.067776 1137.501571676 151.28946364)"></path><path d="m.203-.78-.168.017v.048h.09v.62c0 .065.032.099.112.099.021 0 .042-.002.064-.008v-.052c-.01.002-.027.003-.035.003-.049 0-.063-.015-.063-.063z" fill="#353535" transform="matrix(45.592192 0 0 52.067776 1183.093763676 151.28946364)"></path><path d="m.165-.636c.03 0 .054-.015.054-.053 0-.043-.024-.052-.054-.052-.026 0-.051.009-.051.052 0 .038.025.053.051.053zm.123.591-.085-.01v-.445h-.163v.045l.085.01v.39l-.085.01v.045h.248z" fill="#353535" transform="matrix(45.592192 0 0 52.067776 1197.956818268 151.28946364)"></path><path d="m.619-.045-.085-.01v-.269c0-.122-.057-.185-.169-.185-.064 0-.12.023-.167.075v-.066h-.158v.045l.085.01v.39l-.085.01v.045h.238v-.045l-.075-.01v-.329c.035-.038.086-.063.135-.063.079 0 .118.044.118.132v.26l-.075.01v.045h.238z" fill="#353535" transform="matrix(45.592192 0 0 52.067776 1212.911057244 151.28946364)"></path><path d="m.475-.076c-.037.015-.092.024-.145.024-.127 0-.189-.063-.189-.187h.356v-.075c0-.114-.08-.196-.204-.196-.148 0-.233.107-.233.279 0 .156.083.241.249.241.065 0 .12-.008.166-.026zm-.06-.221h-.271c.012-.104.058-.153.142-.153.082 0 .129.052.129.143z" fill="#353535" transform="matrix(45.592192 0 0 52.067776 1242.044467932 151.28946364)"></path><path d="m.455-.346c0-.111-.069-.163-.182-.163-.05 0-.11.016-.168.051v.119h.061l.009-.093c.029-.012.056-.016.081-.016.092 0 .121.045.121.117v.043c-.228.012-.317.056-.317.169 0 .082.055.129.157.129.078 0 .131-.028.169-.071.009.041.042.061.097.061.025 0 .05-.005.062-.009v-.047c-.008.001-.016.002-.024.002-.042 0-.066-.008-.066-.071zm-.078.238c-.038.043-.079.061-.137.061-.056 0-.098-.02-.098-.081 0-.059.045-.099.235-.103z" fill="#353535" transform="matrix(45.592192 0 0 52.067776 1267.439318876 151.28946364)"></path><path d="m.189-.377v-.123h-.149v.045l.085.01v.39l-.085.01v.045h.278v-.045l-.115-.01v-.204c0-.118.049-.183.137-.186l.008.091h.058v-.15c-.018-.005-.029-.006-.047-.006-.08 0-.14.049-.168.133z" fill="#353535" transform="matrix(45.592192 0 0 52.067776 1293.563644892 151.28946364)"></path><path d="m.325-.216.016-.065h-.265l-.016.065z" fill="#353535" transform="matrix(45.592192 0 0 52.067776 1313.2153044 151.28946364)"></path><path d="m.211-.038c-.054 0-.083-.017-.083-.06 0-.027.012-.045.037-.067.027.011.058.017.094.017.124 0 .192-.067.192-.189 0-.062-.025-.111-.069-.14.023-.018.056-.023.122-.023v-.069c-.078 0-.13.023-.161.072-.024-.008-.052-.013-.083-.013-.124 0-.193.068-.193.189 0 .057.021.102.058.132-.05.04-.068.074-.068.116 0 .035.016.065.046.083-.059.042-.085.078-.085.131 0 .086.081.129.233.129.161 0 .26-.064.26-.177 0-.078-.057-.131-.161-.131zm.045-.416c.076 0 .116.04.116.128 0 .083-.039.123-.11.123-.075 0-.116-.042-.116-.129 0-.083.04-.122.11-.122zm.066.485c.076 0 .111.029.111.076 0 .075-.083.101-.176.101-.11 0-.163-.035-.163-.094 0-.034.017-.061.049-.088.013.003.028.005.044.005z" fill="#353535" transform="matrix(45.592192 0 0 52.067776 1331.40231474 151.28946364)"></path><path d="m.189-.377v-.123h-.149v.045l.085.01v.39l-.085.01v.045h.278v-.045l-.115-.01v-.204c0-.118.049-.183.137-.186l.008.091h.058v-.15c-.018-.005-.029-.006-.047-.006-.08 0-.14.049-.168.133z" fill="#353535" transform="matrix(45.592192 0 0 52.067776 1355.388082 151.28946364)"></path><path d="m.455-.346c0-.111-.069-.163-.182-.163-.05 0-.11.016-.168.051v.119h.061l.009-.093c.029-.012.056-.016.081-.016.092 0 .121.045.121.117v.043c-.228.012-.317.056-.317.169 0 .082.055.129.157.129.078 0 .131-.028.169-.071.009.041.042.061.097.061.025 0 .05-.005.062-.009v-.047c-.008.001-.016.002-.024.002-.042 0-.066-.008-.066-.071zm-.078.238c-.038.043-.079.061-.137.061-.056 0-.098-.02-.098-.081 0-.059.045-.099.235-.103z" fill="#353535" transform="matrix(45.592192 0 0 52.067776 1375.03546724 151.28946364)"></path><path d="m.504-.78-.173.017v.048h.095v.23c-.044-.019-.081-.025-.133-.025-.142 0-.233.11-.233.275 0 .151.083.245.218.245.063 0 .117-.023.16-.068.007.04.037.062.086.062.02 0 .062-.004.078-.01v-.051c-.015.002-.034.003-.039.003-.039 0-.059-.01-.059-.068zm-.078.683c-.032.03-.074.047-.121.047-.107 0-.163-.071-.163-.2 0-.128.06-.203.167-.203.043 0 .083.011.117.031z" fill="#353535" transform="matrix(45.592192 0 0 52.067776 1400.24652466 151.28946364)"></path><path d="m.165-.636c.03 0 .054-.015.054-.053 0-.043-.024-.052-.054-.052-.026 0-.051.009-.051.052 0 .038.025.053.051.053zm.123.591-.085-.01v-.445h-.163v.045l.085.01v.39l-.085.01v.045h.248z" fill="#353535" transform="matrix(45.592192 0 0 52.067776 1428.92686294 151.28946364)"></path><path d="m.475-.076c-.037.015-.092.024-.145.024-.127 0-.189-.063-.189-.187h.356v-.075c0-.114-.08-.196-.204-.196-.148 0-.233.107-.233.279 0 .156.083.241.249.241.065 0 .12-.008.166-.026zm-.06-.221h-.271c.012-.104.058-.153.142-.153.082 0 .129.052.129.143z" fill="#353535" transform="matrix(45.592192 0 0 52.067776 1443.87967716 151.28946364)"></path><path d="m.619-.045-.085-.01v-.269c0-.122-.057-.185-.169-.185-.064 0-.12.023-.167.075v-.066h-.158v.045l.085.01v.39l-.085.01v.045h.238v-.045l-.075-.01v-.329c.035-.038.086-.063.135-.063.079 0 .118.044.118.132v.26l-.075.01v.045h.238z" fill="#353535" transform="matrix(45.592192 0 0 52.067776 1468.82003094 151.28946364)"></path><path d="m.203-.445h.136v-.055h-.136v-.174l-.078.036v.138l-.115.015v.04h.115v.321c0 .086.043.129.133.129.033 0 .061-.003.094-.015v-.05c-.027.008-.048.009-.07.009-.055 0-.079-.021-.079-.086z" fill="#353535" transform="matrix(45.592192 0 0 52.067776 1497.95629114 151.28946364)"></path><path d="m.109-.491c.075-.01.142-.019.198-.024-.054.159-.126.32-.221.488l.061.03c.092-.173.17-.35.231-.525.032-.003.058-.004.075-.004.074 0 .093.019.093.114 0 .082-.018.198-.049.29-.015.046-.035.07-.061.07-.025 0-.074-.021-.119-.06-.009.021-.018.038-.03.056.048.042.116.077.158.077.048 0 .088-.032.116-.109.034-.094.054-.22.054-.325 0-.139-.046-.175-.153-.175-.014 0-.035.001-.062.003.019-.061.037-.122.053-.182-.053-.012-.073-.016-.09-.016-.009 0-.016.004-.016.01 0 .008.008.015.028.023-.014.057-.029.114-.047.171-.063.006-.141.014-.227.024zm.599-.255c.058.046.098.091.137.148l.045-.039c-.043-.06-.081-.098-.138-.143zm.106-.068c.058.046.089.08.129.136l.043-.038c-.044-.06-.074-.088-.13-.134zm-.141.232c.088.088.163.212.197.331l.067-.039c-.041-.112-.104-.222-.205-.33z" fill="#353535" transform="matrix(45.592192 0 0 52.067776 1514.36948026 151.28946364)"></path><path d="m.801-.361.15.004v-.061l-.15.004h-.274v-.102h.153l.15.004v-.059l-.15.004h-.153v-.101h.239l.15.004v-.061l-.15.004h-.239v-.072c.026-.005.037-.013.037-.024s-.014-.019-.109-.024c.005.024.008.05.008.079v.041h-.227l-.15-.004v.061l.15-.004h.227v.101h-.142l-.15-.004v.059l.15-.004h.142v.102h-.262l-.15-.004v.061l.15-.004h.24c-.111.117-.247.192-.41.246.016.011.031.03.043.049.081-.031.157-.065.23-.111v.148c-.029.005-.06.01-.092.015-.023.003-.044.006-.071.007.028.075.037.088.047.088s.014-.01.017-.028c.133-.025.262-.056.376-.085-.001-.019-.001-.038.001-.057-.072.02-.142.035-.217.05v-.179c.047-.034.091-.073.132-.115.075.195.216.341.437.395.012-.021.026-.043.042-.064-.106-.016-.201-.064-.276-.133.047-.035.089-.072.128-.11.027.003.038 0 .038-.011 0-.009-.009-.02-.073-.058-.007.015-.012.023-.024.039-.025.032-.058.066-.106.104-.051-.054-.089-.12-.116-.19z" fill="#353535" transform="matrix(45.592192 0 0 52.067776 940.041788124 229.39112764)"></path><path d="m.537-.449h.249l.15.004v-.068l-.15.004h-.571l-.15-.004v.068l.15-.004h.254v.42c0 .023-.005.032-.035.032-.028 0-.062-.002-.107-.008.014.025.023.054.028.077h.047c.123 0 .139-.019.139-.099l-.004-.129zm-.222-.263h.358l.15.004v-.068l-.15.004h-.358l-.136-.004v.068zm.34.416c.094.076.172.163.235.258l.061-.05c-.076-.095-.147-.169-.25-.247zm-.419.015c-.052.081-.113.145-.206.203.023.012.038.026.052.046.096-.072.157-.129.227-.239.033.002.04-.004.04-.014 0-.009-.006-.017-.088-.045-.005.015-.013.031-.025.049z" fill="#353535" transform="matrix(45.592192 0 0 52.067776 985.633980124 229.39112764)"></path><path d="m.169-.5c.113-.005.232-.017.35-.036.044.079.092.138.146.195-.045.002-.105.004-.157.005l-.002.051c.079.002.156.007.237.016l.006-.003.02-.059-.003-.007c-.074-.061-.131-.125-.179-.209.081-.015.16-.033.238-.055l-.013-.067c-.083.025-.169.045-.256.061-.024-.051-.046-.11-.067-.178-.053.01-.07.014-.082.018-.009.003-.014.008-.014.014 0 .007.009.012.036.014.019.055.039.102.059.144-.112.017-.224.027-.331.028zm.03.276c.005.208.195.245.383.245.05 0 .082-.003.136-.008v-.069c-.059.005-.108.008-.144.008-.147 0-.304-.016-.316-.184z" fill="#353535" transform="matrix(45.592192 0 0 52.067776 1031.226172124 229.39112764)"></path><path d="m.335-.788c-.032-.002-.061-.004-.087-.004-.01 0-.016.005-.016.01 0 .007.009.017.032.023l-.001.152c-.063.01-.129.021-.185.031l.014.061c.054-.014.116-.026.17-.034 0 .032-.001.091-.003.14-.078.109-.112.156-.182.254l.001.009.044.038.009-.001c.045-.065.074-.108.099-.146l.03-.051-.004.072v.273h.066c-.001-.108-.001-.273-.001-.383.219-.236.293-.271.331-.271.024 0 .033.028.033.058 0 .037-.001.103-.008.207-.005.083-.008.144-.008.204 0 .082.043.121.093.121.079 0 .138-.041.2-.12-.016-.016-.028-.029-.044-.054-.055.08-.095.102-.139.102-.036 0-.042-.019-.042-.057 0-.042.004-.113.009-.197.005-.093.01-.168.01-.213 0-.074-.028-.114-.101-.114-.084 0-.186.097-.33.249v-.024c.019-.033.039-.074.072-.124l.001-.009-.016-.029-.01-.004c-.016 0-.028.001-.044.002l.002-.121z" fill="#353535" transform="matrix(45.592192 0 0 52.067776 1076.818364124 229.39112764)"></path><path d="m.093-.565c.027.002.054.002.081.002.028 0 .064-.001.104-.004-.044.161-.109.321-.188.481l.067.031c.081-.171.146-.344.195-.517.058-.004.118-.011.17-.018l-.005-.064c-.046.007-.097.013-.148.018.013-.05.024-.1.034-.149-.069-.013-.083-.015-.096-.015-.008 0-.014.004-.014.01 0 .008.006.015.028.027-.007.044-.016.088-.027.132-.043.003-.083.005-.117.005-.031 0-.058-.002-.089-.004zm.534-.03c.084.023.172.058.256.104l.033-.06c-.087-.046-.175-.08-.262-.101zm.02.109c-.029.036-.041.071-.041.116 0 .039.009.085.025.161-.028-.005-.056-.009-.089-.009-.119 0-.182.061-.182.137 0 .07.073.116.181.116.101 0 .172-.05.173-.152.056.024.11.06.171.108l.039-.063c-.064-.046-.143-.092-.218-.12-.024-.104-.033-.135-.033-.174 0-.035.011-.063.036-.093zm-.005.346c.002.007.002.022.002.029 0 .052-.041.084-.109.084-.071 0-.112-.024-.112-.06 0-.035.031-.07.108-.07.046 0 .073.007.111.017z" fill="#353535" transform="matrix(45.592192 0 0 52.067776 1122.410556124 229.39112764)"></path><path d="m.651-.529c.098.115.157.22.207.351l.069-.036c-.052-.131-.109-.225-.221-.352zm-.218.302c-.037.11-.073.147-.098.147-.041 0-.127-.129-.127-.318 0-.11.008-.174.032-.289-.063-.014-.08-.018-.091-.018-.008 0-.018.002-.018.008 0 .01.011.018.027.03-.016.103-.022.174-.022.271 0 .189.091.392.201.392.048 0 .103-.048.152-.182-.02-.012-.037-.024-.056-.041z" fill="#353535" transform="matrix(45.592192 0 0 52.067776 1168.002748124 229.39112764)"></path><path d="m.327-.452.116.004.004-.004-.004-.086v-.178l.004-.087-.004-.003-.116.004h-.117l-.116-.004-.004.003.004.117v.615l-.004.15h.066v-.531zm-.171-.05v-.104h.226v.104zm0-.153v-.097h.226v.097zm.687.203v.438c0 .028-.005.032-.024.032-.023 0-.049-.001-.087-.005.011.019.021.048.025.067h.035c.105 0 .116-.019.116-.086l-.003-.126v-.554l.004-.117-.004-.003-.116.004h-.134l-.116-.004-.004.003.004.087v.178l-.004.087.004.003.116-.004zm-.243-.05v-.104h.243v.104zm.243-.153h-.243v-.097h.243zm-.208.566v.05h.064l-.004-.142v-.076l.004-.096-.005-.004-.124.004h-.154l-.116-.004-.004.004.004.096v.101l-.004.128h.064v-.061zm0-.052h-.275v-.16h.275z" fill="#353535" transform="matrix(45.592192 0 0 52.067776 1213.594940124 229.39112764)"></path><path d="m.718-.648c.008-.03.014-.06.02-.091h.066l.14.004v-.06l-.14.004h-.18l-.14-.004v.06l.14-.004h.055c-.004.031-.01.061-.017.091h-.013l-.116-.004-.004.004.004.116v.21l-.004.115.004.005.116-.004h.126l.115.004.005-.005-.004-.115v-.21l.004-.116-.004-.004-.116.004zm.116.051v.075h-.245v-.075zm-.245.126h.245v.079h-.245zm0 .13h.245v.083h-.245zm-.37-.447-.116-.004-.004.004.004.106v.109l-.005.107.004.003.116-.004h.09l.116.004.004-.004-.004-.106v-.109l.004-.106-.004-.004-.116.004zm-.059.051h.208v.083h-.208zm0 .133h.208v.087h-.208zm.153.374v-.112h.058l.12.004v-.06l-.12.004h-.206l-.12-.004v.06l.12-.004h.089v.294c-.04-.023-.068-.06-.09-.1.007-.032.012-.066.015-.102.026-.006.033-.012.033-.02 0-.01-.01-.016-.092-.03.001.023.001.047-.002.076-.008.092-.035.171-.084.243.017.014.031.03.043.051.033-.052.056-.103.073-.158.065.117.139.137.457.137.122 0 .225-.001.326-.004.007-.025.015-.049.029-.069-.113.008-.237.012-.365.012-.134 0-.221 0-.284-.014v-.152h.062l.08.004v-.06l-.08.004zm.332.095c.009.001.016.002.021.002.013 0 .018-.003.018-.011 0-.009-.008-.018-.062-.047-.009.011-.015.016-.03.028-.032.025-.078.051-.139.071.017.014.029.028.04.047.06-.024.108-.053.152-.09zm.297.036c-.054-.041-.103-.068-.164-.093l-.038.037c.066.029.11.056.163.101z" fill="#353535" transform="matrix(45.592192 0 0 52.067776 1259.187132124 229.39112764)"></path></g></g></svg> 